<svg width="115" height="34" viewBox="0 0 115 34" fill="none" xmlns="http://www.w3.org/2000/svg">
<path d="M114.793 29.9876C114.793 31.8274 113.329 33.3185 111.523 33.3185H85.6267C83.82 33.3185 82.3564 31.8274 82.3564 29.9876V3.33094C82.3564 1.49136 83.82 0 85.6267 0H111.523C113.329 0 114.793 1.49136 114.793 3.33094V29.9876Z" fill="black"/>
<path d="M0 6.56665H4.42083V22.7301H12.2155V26.5191H0V6.56665Z" fill="black"/>
<path d="M18.2255 8.0444C18.2255 9.28558 17.2943 10.2908 15.7622 10.2908C14.3202 10.2908 13.3888 9.28558 13.3888 8.0444C13.3888 6.77332 14.3504 5.79785 15.8225 5.79785C17.2943 5.79785 18.1957 6.77332 18.2255 8.0444ZM13.509 26.5191V12.0644H18.0756V26.5191H13.509Z" fill="black"/>
<path d="M20.4268 16.5324C20.4268 14.7032 20.3688 13.174 20.3107 11.854H24.1417L24.3452 13.8935H24.4324C25.0127 12.9336 26.4348 11.5242 28.8145 11.5242C31.7173 11.5242 33.8942 13.5337 33.8942 17.8521V26.5192H29.4822V18.3919C29.4822 16.5026 28.8439 15.2132 27.2477 15.2132C26.0284 15.2132 25.303 16.0829 24.9835 16.9223C24.8676 17.2223 24.8388 17.6421 24.8388 18.0622V26.5192H20.4268V16.5324Z" fill="black"/>
<path d="M40.6427 18.1576H40.7007C41.0198 17.537 41.3677 16.9463 41.7155 16.4145L44.5856 12.0709H49.8915L44.8177 17.9211L50.6162 26.5192H45.1947L41.7441 20.5801L40.6427 21.9984V26.5192H36.2354V5.54138H40.6427V18.1576Z" fill="black"/>
<path d="M53.8056 20.6322C53.9217 22.5196 55.7501 23.4186 57.8112 23.4186C59.3207 23.4186 60.5397 23.2087 61.7303 22.7893L62.3105 25.8753C60.859 26.5045 59.0886 26.8041 57.1728 26.8041C52.354 26.8041 49.5964 23.928 49.5964 19.3439C49.5964 15.6289 51.8319 11.5242 56.7659 11.5242C61.3526 11.5242 63.0942 15.2096 63.0942 18.8346C63.0942 19.6134 63.0069 20.3025 62.9489 20.6322H53.8056ZM59.0012 17.5162C59.0012 16.4078 58.5369 14.5501 56.5051 14.5501C54.6473 14.5501 53.8924 16.3183 53.7764 17.5162H59.0012Z" fill="black"/>
<path d="M78.3046 5.54138V22.1964C78.3046 23.8204 78.3626 25.5334 78.4206 26.5077H74.5074L74.3337 24.4111H74.2471C73.3775 26.0055 71.6383 26.8329 69.8124 26.8329C66.4505 26.8329 63.7547 23.9093 63.7547 19.4205C63.726 14.5478 66.7115 11.7133 70.1021 11.7133C71.8701 11.7133 73.2034 12.3628 73.8409 13.3372H73.8989V5.54138H78.3046ZM73.8989 18.1804C73.8989 17.9438 73.8989 17.6192 73.8409 17.3533C73.5803 16.1724 72.6241 15.1682 71.2618 15.1682C69.2325 15.1682 68.2181 16.9991 68.2181 19.273C68.2181 21.7235 69.4069 23.2592 71.2327 23.2592C72.5079 23.2592 73.5512 22.3736 73.8121 21.104C73.8703 20.779 73.8989 20.4249 73.8989 20.0703V18.1804Z" fill="black"/>
<path d="M93.0766 8.04428C93.0766 9.28546 92.1452 10.2907 90.6133 10.2907C89.1713 10.2907 88.24 9.28546 88.24 8.04428C88.24 6.7732 89.2013 5.79773 90.6731 5.79773C92.1452 5.79773 93.0467 6.7732 93.0766 8.04428ZM88.3603 26.519V12.0642H92.9264V26.519H88.3603Z" fill="white"/>
<path d="M95.2781 16.5323C95.2781 14.7031 95.2203 13.1738 95.1622 11.8539H98.9932L99.1964 13.8933H99.2834C99.8639 12.9335 101.286 11.524 103.666 11.524C106.569 11.524 108.745 13.5336 108.745 17.8519V26.5191H104.334V18.3917C104.334 16.5025 103.695 15.2131 102.099 15.2131C100.88 15.2131 100.155 16.0828 99.8351 16.9222C99.7187 17.2222 99.6896 17.6419 99.6896 18.0621V26.5191H95.2781V16.5323Z" fill="white"/>
</svg>
