<svg width="115" height="17" viewBox="0 0 115 17" fill="none" xmlns="http://www.w3.org/2000/svg">
<path d="M3.26249 0.449987L7.58249 12.735L11.8575 0.449987H15.12L9.06749 16.425H6.07499L-1.34256e-05 0.449987H3.26249ZM20.44 16.65C19.495 16.65 18.64 16.4925 17.875 16.1775C17.11 15.8475 16.4575 15.405 15.9175 14.85C15.3775 14.28 14.9575 13.635 14.6575 12.915C14.3725 12.18 14.23 11.4075 14.23 10.5975C14.23 9.47249 14.4775 8.44499 14.9725 7.51499C15.4825 6.58499 16.2025 5.84249 17.1325 5.28749C18.0775 4.71749 19.1875 4.43249 20.4625 4.43249C21.7525 4.43249 22.855 4.71749 23.77 5.28749C24.685 5.84249 25.3825 6.58499 25.8625 7.51499C26.3575 8.42999 26.605 9.41999 26.605 10.485C26.605 10.665 26.5975 10.8525 26.5825 11.0475C26.5675 11.2275 26.5525 11.3775 26.5375 11.4975H17.425C17.485 12.0975 17.6575 12.6225 17.9425 13.0725C18.2425 13.5225 18.6175 13.8675 19.0675 14.1075C19.5325 14.3325 20.0275 14.445 20.5525 14.445C21.1525 14.445 21.715 14.3025 22.24 14.0175C22.78 13.7175 23.1475 13.3275 23.3425 12.8475L25.93 13.5675C25.645 14.1675 25.2325 14.7 24.6925 15.165C24.1675 15.63 23.545 15.9975 22.825 16.2675C22.105 16.5225 21.31 16.65 20.44 16.65ZM17.3575 9.58499H23.5225C23.4625 8.98499 23.29 8.46749 23.005 8.03249C22.735 7.58249 22.375 7.23749 21.925 6.99749C21.475 6.74249 20.9725 6.61499 20.4175 6.61499C19.8775 6.61499 19.3825 6.74249 18.9325 6.99749C18.4975 7.23749 18.1375 7.58249 17.8525 8.03249C17.5825 8.46749 17.4175 8.98499 17.3575 9.58499ZM35.4617 7.24499C34.5467 7.24499 33.7292 7.42499 33.0092 7.78499C32.2892 8.12999 31.7717 8.63249 31.4567 9.29249V16.425H28.4417V4.63499H31.2092V7.15499C31.6292 6.34499 32.1617 5.70749 32.8067 5.24249C33.4517 4.77749 34.1342 4.52249 34.8542 4.47749C35.0192 4.47749 35.1467 4.47749 35.2367 4.47749C35.3267 4.47749 35.4017 4.48499 35.4617 4.49999V7.24499ZM43.8479 16.65C42.9479 16.65 42.1454 16.4475 41.4404 16.0425C40.7354 15.6375 40.1804 15.0825 39.7754 14.3775V16.425H37.1429V-1.26362e-05H40.1579V6.70499C40.5779 5.99999 41.1254 5.44499 41.8004 5.03999C42.4904 4.63499 43.2929 4.43249 44.2079 4.43249C44.9729 4.43249 45.6704 4.59749 46.3004 4.92749C46.9304 5.24249 47.4704 5.68499 47.9204 6.25499C48.3854 6.82499 48.7379 7.47749 48.9779 8.21249C49.2329 8.94749 49.3604 9.73499 49.3604 10.575C49.3604 11.415 49.2179 12.2025 48.9329 12.9375C48.6629 13.6725 48.2804 14.325 47.7854 14.895C47.2904 15.45 46.7054 15.885 46.0304 16.2C45.3704 16.5 44.6429 16.65 43.8479 16.65ZM43.0154 14.085C43.4954 14.085 43.9304 13.995 44.3204 13.815C44.7254 13.62 45.0704 13.365 45.3554 13.05C45.6554 12.735 45.8804 12.3675 46.0304 11.9475C46.1954 11.5125 46.2779 11.0625 46.2779 10.5975C46.2779 9.95249 46.1429 9.35999 45.8729 8.81999C45.6179 8.26499 45.2579 7.82249 44.7929 7.49249C44.3429 7.16249 43.8104 6.99749 43.1954 6.99749C42.7604 6.99749 42.3404 7.10249 41.9354 7.31249C41.5454 7.50749 41.1929 7.77749 40.8779 8.12249C40.5779 8.46749 40.3379 8.85749 40.1579 9.29249V12.105C40.2479 12.405 40.3904 12.675 40.5854 12.915C40.7954 13.155 41.0354 13.365 41.3054 13.545C41.5754 13.71 41.8529 13.845 42.1379 13.95C42.4379 14.04 42.7304 14.085 43.0154 14.085ZM50.5932 12.9375C50.5932 12.1725 50.8032 11.505 51.2232 10.935C51.6582 10.35 52.2582 9.89999 53.0232 9.58499C53.7882 9.26999 54.6657 9.11249 55.6557 9.11249C56.1507 9.11249 56.6532 9.14999 57.1632 9.22499C57.6732 9.29999 58.1157 9.41999 58.4907 9.58499V8.95499C58.4907 8.20499 58.2657 7.62749 57.8157 7.22249C57.3807 6.81749 56.7282 6.61499 55.8582 6.61499C55.2132 6.61499 54.5982 6.72749 54.0132 6.95249C53.4282 7.17749 52.8132 7.50749 52.1682 7.94249L51.2007 5.96249C51.9807 5.45249 52.7757 5.06999 53.5857 4.81499C54.4107 4.55999 55.2732 4.43249 56.1732 4.43249C57.8532 4.43249 59.1582 4.85249 60.0882 5.69249C61.0332 6.53249 61.5057 7.73249 61.5057 9.29249V13.05C61.5057 13.365 61.5582 13.59 61.6632 13.725C61.7832 13.86 61.9707 13.9425 62.2257 13.9725V16.425C61.9557 16.47 61.7082 16.5075 61.4832 16.5375C61.2732 16.5675 61.0932 16.5825 60.9432 16.5825C60.3432 16.5825 59.8857 16.4475 59.5707 16.1775C59.2707 15.9075 59.0832 15.5775 59.0082 15.1875L58.9407 14.58C58.4307 15.24 57.7932 15.75 57.0282 16.11C56.2632 16.47 55.4832 16.65 54.6882 16.65C53.9082 16.65 53.2032 16.4925 52.5732 16.1775C51.9582 15.8475 51.4707 15.405 51.1107 14.85C50.7657 14.28 50.5932 13.6425 50.5932 12.9375ZM57.9282 13.545C58.0932 13.365 58.2282 13.185 58.3332 13.005C58.4382 12.825 58.4907 12.66 58.4907 12.51V11.3175C58.1307 11.1675 57.7407 11.055 57.3207 10.98C56.9007 10.89 56.5032 10.845 56.1282 10.845C55.3482 10.845 54.7032 11.0175 54.1932 11.3625C53.6982 11.6925 53.4507 12.135 53.4507 12.69C53.4507 12.99 53.5332 13.275 53.6982 13.545C53.8632 13.815 54.1032 14.0325 54.4182 14.1975C54.7332 14.3625 55.1082 14.445 55.5432 14.445C55.9932 14.445 56.4357 14.3625 56.8707 14.1975C57.3057 14.0175 57.6582 13.8 57.9282 13.545ZM64.3006 -1.26362e-05H67.3156V12.645C67.3156 13.185 67.4056 13.5525 67.5856 13.7475C67.7656 13.9275 68.0131 14.0175 68.3281 14.0175C68.5681 14.0175 68.8156 13.9875 69.0706 13.9275C69.3256 13.8675 69.5506 13.7925 69.7456 13.7025L70.1506 15.9975C69.7456 16.1925 69.2731 16.3425 68.7331 16.4475C68.1931 16.5525 67.7056 16.605 67.2706 16.605C66.3256 16.605 65.5906 16.3575 65.0656 15.8625C64.5556 15.3525 64.3006 14.6325 64.3006 13.7025V-1.26362e-05ZM71.4642 16.425V4.63499H74.4792V16.425H71.4642ZM71.4642 2.99249V-1.26362e-05H74.4792V2.99249H71.4642ZM76.4116 14.58L82.9141 6.74999H76.6816V4.63499H86.1541V6.47999L79.6966 14.31H86.2666V16.425H76.4116V14.58ZM93.565 16.65C92.62 16.65 91.765 16.4925 91 16.1775C90.235 15.8475 89.5825 15.405 89.0425 14.85C88.5025 14.28 88.0825 13.635 87.7825 12.915C87.4975 12.18 87.355 11.4075 87.355 10.5975C87.355 9.47249 87.6025 8.44499 88.0975 7.51499C88.6075 6.58499 89.3275 5.84249 90.2575 5.28749C91.2025 4.71749 92.3125 4.43249 93.5875 4.43249C94.8775 4.43249 95.98 4.71749 96.895 5.28749C97.81 5.84249 98.5075 6.58499 98.9875 7.51499C99.4825 8.42999 99.73 9.41999 99.73 10.485C99.73 10.665 99.7225 10.8525 99.7075 11.0475C99.6925 11.2275 99.6775 11.3775 99.6625 11.4975H90.55C90.61 12.0975 90.7825 12.6225 91.0675 13.0725C91.3675 13.5225 91.7425 13.8675 92.1925 14.1075C92.6575 14.3325 93.1525 14.445 93.6775 14.445C94.2775 14.445 94.84 14.3025 95.365 14.0175C95.905 13.7175 96.2725 13.3275 96.4675 12.8475L99.055 13.5675C98.77 14.1675 98.3575 14.7 97.8175 15.165C97.2925 15.63 96.67 15.9975 95.95 16.2675C95.23 16.5225 94.435 16.65 93.565 16.65ZM90.4825 9.58499H96.6475C96.5875 8.98499 96.415 8.46749 96.13 8.03249C95.86 7.58249 95.5 7.23749 95.05 6.99749C94.6 6.74249 94.0975 6.61499 93.5425 6.61499C93.0025 6.61499 92.5075 6.74249 92.0575 6.99749C91.6225 7.23749 91.2625 7.58249 90.9775 8.03249C90.7075 8.46749 90.5425 8.98499 90.4825 9.58499ZM101.727 16.425V0.449987H104.832V16.425H101.727ZM114.762 15.8175C114.507 15.9225 114.2 16.0425 113.84 16.1775C113.48 16.3125 113.09 16.4175 112.67 16.4925C112.265 16.5825 111.852 16.6275 111.432 16.6275C110.877 16.6275 110.367 16.53 109.902 16.335C109.437 16.14 109.062 15.8325 108.777 15.4125C108.507 14.9775 108.372 14.415 108.372 13.725V6.95249H106.82V4.63499H108.372V0.809988H111.387V4.63499H113.862V6.95249H111.387V12.7125C111.402 13.1175 111.515 13.41 111.725 13.59C111.935 13.77 112.197 13.86 112.512 13.86C112.827 13.86 113.135 13.8075 113.435 13.7025C113.735 13.5975 113.975 13.5075 114.155 13.4325L114.762 15.8175Z" fill="black"/>
</svg>
