<svg width="122" height="37" viewBox="0 0 122 37" fill="none" xmlns="http://www.w3.org/2000/svg">
<path d="M18.1132 0C8.10976 0 0 7.97518 0 17.813C0 27.6517 8.10976 35.6266 18.1132 35.6266C28.117 35.6266 36.2263 27.6517 36.2263 17.813C36.2263 7.97589 28.1175 0.000896651 18.113 0.000896651L18.1132 0ZM26.4198 25.6914C26.0945 26.2161 25.3993 26.3806 24.8674 26.0609C20.614 23.5042 15.2602 22.9267 8.95524 24.3432C8.34768 24.4803 7.74205 24.1057 7.60363 23.5084C7.46455 22.9109 7.8437 22.3152 8.45279 22.179C15.3526 20.6278 21.2711 21.2956 26.0453 24.1647C26.5774 24.4858 26.7461 25.1685 26.4195 25.6918L26.4198 25.6914ZM28.6368 20.8419C28.2271 21.4955 27.358 21.7005 26.6942 21.2992C21.8265 18.3565 14.4039 17.5041 8.64508 19.2232C7.89821 19.445 7.10939 19.0312 6.88272 18.298C6.65777 17.5634 7.0789 16.7893 7.82446 16.5658C14.4026 14.603 22.5803 15.5538 28.1715 18.9328C28.8356 19.3346 29.0454 20.1898 28.6366 20.842L28.6368 20.8419H28.6368ZM28.8271 15.7911C22.9884 12.3812 13.3577 12.0675 7.784 13.7312C6.88898 13.9982 5.94247 13.5013 5.67124 12.6211C5.4 11.7405 5.90483 10.8103 6.80051 10.5426C13.1987 8.63242 23.835 9.00166 30.5562 12.9255C31.3612 13.3953 31.6253 14.4179 31.1482 15.2085C30.6723 16.0001 29.6298 16.2612 28.8273 15.7911H28.8271ZM49.28 16.4446C46.1525 15.7111 45.5958 15.1964 45.5958 14.1148C45.5958 13.0929 46.5741 12.4051 48.0289 12.4051C49.4392 12.4051 50.8375 12.9275 52.3035 14.0026C52.3479 14.035 52.4035 14.048 52.4582 14.0394C52.5129 14.0313 52.5614 14.0017 52.5934 13.9575L54.1204 11.8404C54.1831 11.7531 54.166 11.633 54.0815 11.5665C52.3366 10.1896 50.3718 9.5202 48.0752 9.5202C44.6984 9.5202 42.3397 11.513 42.3397 14.3646C42.3397 17.4223 44.3744 18.505 47.8905 19.3407C50.8832 20.0185 51.3882 20.5866 51.3882 21.6019C51.3882 22.7268 50.3668 23.4263 48.7232 23.4263C46.8977 23.4263 45.4087 22.8216 43.743 21.4029C43.7017 21.3678 43.6451 21.352 43.5927 21.3549C43.5376 21.3593 43.4872 21.3842 43.4521 21.4259L41.7399 23.4299C41.6681 23.513 41.6772 23.6372 41.7603 23.7091C43.6983 25.4106 46.0818 26.3092 48.654 26.3092C52.2927 26.3092 54.6441 24.3541 54.6441 21.3278C54.6506 18.7732 53.0954 17.3585 49.2865 16.4473L49.28 16.4446ZM62.8762 13.4113C61.299 13.4113 60.0054 14.0223 58.9386 15.274V13.865C58.9386 13.7536 58.8469 13.6633 58.734 13.6633H55.9336C55.8205 13.6633 55.729 13.7536 55.729 13.865V29.521C55.729 29.6324 55.8205 29.7229 55.9336 29.7229H58.734C58.8469 29.7229 58.9386 29.6324 58.9386 29.521V24.5791C60.0056 25.7568 61.2995 26.332 62.8762 26.332C65.8068 26.332 68.7735 24.1135 68.7735 19.8725C68.7779 15.6304 65.8103 13.4111 62.8795 13.4111L62.8762 13.4113ZM65.5172 19.8725C65.5172 22.0321 64.1645 23.5391 62.2276 23.5391C60.3127 23.5391 58.8683 21.9637 58.8683 19.8725C58.8683 17.7814 60.3127 16.2057 62.2276 16.2057C64.1331 16.2055 65.5174 17.7472 65.5174 19.8721L65.5172 19.8725ZM76.3774 13.4113C72.6033 13.4113 69.6465 16.2693 69.6465 19.9185C69.6465 23.5281 72.5829 26.3562 76.3311 26.3562C80.1186 26.3562 83.0844 23.5077 83.0844 19.8725C83.0844 16.2497 80.1385 13.4117 76.3772 13.4117L76.3774 13.4113ZM76.3774 23.5607C74.3699 23.5607 72.8565 21.9744 72.8565 19.8714C72.8565 17.7593 74.3176 16.2267 76.3311 16.2267C78.3515 16.2267 79.8751 17.813 79.8751 19.9176C79.8751 22.0292 78.4043 23.5607 76.3776 23.5607H76.3774ZM91.1438 13.6633H88.0622V10.5647C88.0622 10.4539 87.971 10.3631 87.8579 10.3631H85.0579C84.9446 10.3631 84.8527 10.4539 84.8527 10.5647V13.6633H83.5062C83.3935 13.6633 83.3023 13.7536 83.3023 13.865V16.2318C83.3023 16.3428 83.3935 16.4337 83.5062 16.4337H84.8527V22.558C84.8527 25.0328 86.1052 26.2877 88.5755 26.2877C89.58 26.2877 90.4134 26.0836 91.1988 25.6458C91.2626 25.6107 91.3021 25.5429 91.3021 25.471V23.2172C91.3021 23.1477 91.2653 23.082 91.2048 23.0454C91.1438 23.0078 91.0679 23.0059 91.0054 23.0363C90.4659 23.3033 89.9445 23.4265 89.3615 23.4265C88.4631 23.4265 88.0622 23.0253 88.0622 22.1261V16.4349H91.1438C91.2569 16.4349 91.348 16.3442 91.348 16.233V13.8664C91.3523 13.7551 91.2615 13.6643 91.1468 13.6643L91.1438 13.6633ZM101.881 13.6754V13.2948C101.881 12.1753 102.317 11.6759 103.296 11.6759C103.88 11.6759 104.349 11.79 104.874 11.9623C104.939 11.9822 105.006 11.9724 105.059 11.9342C105.113 11.8961 105.143 11.8351 105.143 11.7704V9.4499C105.143 9.36113 105.085 9.28258 104.998 9.25631C104.444 9.09402 103.734 8.92751 102.671 8.92751C100.084 8.92751 98.7172 10.36 98.7172 13.0684V13.6512H97.3718C97.2589 13.6512 97.1663 13.7418 97.1663 13.8528V16.2318C97.1663 16.3428 97.2589 16.4337 97.3718 16.4337H98.7172V25.8801C98.7172 25.9913 98.8084 26.0819 98.9214 26.0819H101.722C101.835 26.0819 101.927 25.9913 101.927 25.8801V16.4344H104.542L108.547 25.8783C108.092 26.8707 107.645 27.068 107.035 27.068C106.541 27.068 106.022 26.9232 105.49 26.6374C105.44 26.6103 105.381 26.6057 105.327 26.6222C105.274 26.6408 105.229 26.6799 105.206 26.731L104.257 28.7787C104.212 28.8756 104.251 28.9892 104.345 29.0394C105.336 29.567 106.231 29.7921 107.336 29.7921C109.404 29.7921 110.547 28.8451 111.554 26.2968L116.412 13.951C116.437 13.8888 116.43 13.8187 116.391 13.7635C116.352 13.7089 116.29 13.6759 116.222 13.6759H113.307C113.22 13.6759 113.142 13.7305 113.113 13.8112L110.127 22.2002L106.856 13.8057C106.826 13.7276 106.749 13.6759 106.665 13.6759H101.88L101.881 13.6754ZM95.6557 13.6633H92.8554C92.7422 13.6633 92.6501 13.7536 92.6501 13.865V25.8801C92.6501 25.9913 92.7422 26.0819 92.8554 26.0819H95.6557C95.7686 26.0819 95.861 25.9913 95.861 25.8801V13.866C95.8611 13.8123 95.8395 13.7608 95.8009 13.7228C95.7623 13.6851 95.71 13.6638 95.6555 13.664L95.6557 13.6633ZM94.2714 8.19243C93.1621 8.19243 92.2618 9.07555 92.2618 10.1667C92.2618 11.2584 93.1623 12.1425 94.2714 12.1425C95.3804 12.1425 96.2797 11.2584 96.2797 10.1667C96.2797 9.07573 95.38 8.19243 94.2725 8.19243H94.2714ZM118.804 17.5261C117.695 17.5261 116.833 16.6509 116.833 15.588C116.833 14.525 117.707 13.6398 118.814 13.6398C119.922 13.6398 120.785 14.5148 120.785 15.5769C120.785 16.6399 119.911 17.5261 118.803 17.5261H118.804ZM118.814 13.8326C117.805 13.8326 117.041 14.6217 117.041 15.588C117.041 16.5539 117.8 17.3324 118.804 17.3324C119.813 17.3324 120.578 16.5438 120.578 15.5769C120.578 14.611 119.819 13.8326 118.815 13.8326H118.814H118.814ZM119.251 15.7761L119.809 16.5437H119.339L118.837 15.8396H118.405V16.5437H118.012V14.5093H118.934C119.415 14.5093 119.731 14.7513 119.731 15.1582C119.733 15.4918 119.536 15.6956 119.253 15.7763H119.251V15.7761ZM118.918 14.8585H118.405V15.5018H118.918C119.174 15.5018 119.327 15.3786 119.327 15.1798C119.327 14.9706 119.174 14.8585 118.918 14.8585H118.918Z" fill="black"/>
</svg>
