<svg width="65" height="21" viewBox="0 0 65 21" fill="none" xmlns="http://www.w3.org/2000/svg">
<path d="M27.553 20.504H22.6167L25.702 0.360229H30.6388L27.553 20.504Z" fill="black"/>
<path d="M17.8232 0.360474L12.9279 14.2147L12.3492 11.2312L12.3497 11.2323L10.6216 2.17469C10.6216 2.17469 10.4132 0.360474 8.18603 0.360474H0.0944848L6.10352e-05 0.701013C6.10352e-05 0.701013 2.47516 1.2269 5.37016 3.00448L9.83082 20.5039H15.1803L23.3489 0.360474H17.8232Z" fill="black"/>
<path d="M59.0826 20.5039H63.7689L59.683 0.360474H55.5798C53.6847 0.360474 53.2233 1.86163 53.2233 1.86163L45.6125 20.5039H50.9318L51.9962 17.5123H58.4843L59.0826 20.5039ZM53.4666 13.3784L56.1487 5.84031L57.6574 13.3784H53.4666Z" fill="black"/>
<path d="M45.5465 5.20449L46.2705 0.878283C46.2705 0.878283 44.0348 0 41.7041 0C39.1847 0 33.2021 1.13799 33.2021 6.66848C33.2021 11.873 40.2238 11.9376 40.2238 14.67C40.2238 17.4024 33.9256 16.9142 31.8475 15.1905L31.0922 19.7128C31.0922 19.7128 33.3586 20.8509 36.8233 20.8509C40.2874 20.8509 45.5146 18.9968 45.5146 13.9544C45.5146 8.71708 38.4294 8.22945 38.4294 5.95292C38.4294 3.67531 43.3739 3.96789 45.5465 5.20449Z" fill="black"/>
<path d="M12.1141 11.2318L10.4189 2.1742C10.4189 2.1742 10.2145 0.359985 8.02984 0.359985H0.0926229L0 0.700524C0 0.700524 3.81518 1.52438 7.47513 4.6086C10.9731 7.55705 12.1141 11.2318 12.1141 11.2318Z" fill="black"/>
</svg>
