<svg width="116" height="39" viewBox="0 0 116 39" fill="none" xmlns="http://www.w3.org/2000/svg">
<path d="M67.8252 11.2699H67.8169C63.4491 11.2699 59.9149 14.6445 59.9149 18.7972C59.9149 22.9579 63.4491 26.3325 67.8169 26.3325C72.1846 26.3325 75.7272 22.9659 75.7272 18.8052C75.7272 14.6445 72.193 11.2699 67.8252 11.2699ZM71.1677 21.9972C69.3089 23.7599 66.3082 23.7519 64.4577 21.9892C62.6156 20.2265 62.6156 17.368 64.4577 15.6053C66.3082 13.8346 69.3089 13.8346 71.1677 15.5973L71.176 15.6053C73.0348 17.368 73.0265 20.2344 71.1677 21.9972Z" fill="black"/>
<path d="M58.3311 23.3623L57.5392 23.3226H50.4208L59.9148 14.2782L59.8732 13.5238C59.8398 12.3089 58.8146 11.3322 57.5392 11.3004L56.7474 11.2607H44.8861L44.9278 12.0151C44.9861 13.2141 45.9947 14.1829 47.2617 14.2385L48.0536 14.2782H55.172L45.678 23.3226L45.7197 24.077C45.7613 25.2839 46.7866 26.2606 48.0536 26.3004L48.8454 26.3401H60.7067L60.665 25.5857C60.5567 24.339 59.6314 23.4338 58.3311 23.3623Z" fill="black"/>
<path d="M108.952 11.2694C107.135 11.2694 105.409 12.0158 104.209 13.3101C102.109 11.0391 98.5578 10.6024 95.9238 12.3017C95.3153 11.6426 93.9316 11.2694 93.1398 11.2694V26.3404L93.9316 26.3007C95.2487 26.2213 96.2155 25.332 96.2655 24.0774L96.3072 23.3231V18.0506L96.3489 17.2962C96.3489 16.7722 96.4906 16.256 96.7407 15.7875C97.6076 14.3503 99.5414 13.858 101.058 14.6917C101.533 14.9538 101.934 15.3349 102.209 15.7875H102.2C102.459 16.256 102.592 16.7722 102.592 17.2962L102.634 18.0506V23.3231L102.675 24.0774C102.725 25.2844 103.734 26.2531 105.001 26.3007L105.793 26.3404V18.0506L105.835 17.2962C105.835 16.7642 105.968 16.2481 106.226 15.7796C107.102 14.3424 109.044 13.8501 110.552 14.6917C111.028 14.9538 111.428 15.3349 111.703 15.7875C111.953 16.256 112.086 16.7722 112.086 17.2962L112.128 18.0506V23.3231L112.17 24.0774C112.211 25.2844 113.228 26.2531 114.495 26.3007L115.287 26.3404V17.2962C115.279 13.9692 112.445 11.2694 108.952 11.2694Z" fill="black"/>
<path d="M90.0224 13.4773C88.5386 12.0639 86.5298 11.2699 84.4293 11.2699C82.3287 11.2699 80.3199 12.0639 78.8362 13.4773C75.7521 16.4232 75.7521 21.1953 78.8446 24.1332C81.937 27.0711 86.9466 27.0711 90.0307 24.1253C93.1232 21.1874 93.1148 16.4152 90.0224 13.4773V13.4773ZM87.7801 21.9973C85.9213 23.76 82.9206 23.7521 81.0701 21.9893C79.228 20.2266 79.228 17.3681 81.0701 15.6053C82.9206 13.8346 85.9213 13.8346 87.7801 15.5974L87.7885 15.6053C89.6472 17.3681 89.6389 20.2345 87.7801 21.9973Z" fill="black"/>
<path d="M0 0H38.3595V38.3604H0V0Z" fill="black"/>
<path d="M6.32654 11.8619H31.6411V26.4909H6.32654V11.8619Z" fill="white"/>
</svg>
